<?xml version="1.0" encoding="utf-8"?>
<!-- Generator: Adobe Illustrator 25.4.1, SVG Export Plug-In . SVG Version: 6.00 Build 0)  -->
<svg version="1.1" id="Layer_1" xmlns="http://www.w3.org/2000/svg" xmlns:xlink="http://www.w3.org/1999/xlink" x="0px" y="0px"
	 viewBox="0 0 600 1000" style="enable-background:new 0 0 600 1000;" xml:space="preserve">
<style type="text/css">
	
		.st0{clip-path:url(#SVGID_00000124126801319889484210000010577669705351459717_);fill:url(#SVGID_00000003096604287966304450000000653428414311227029_);}
	.st1{filter:url(#Adobe_OpacityMaskFilter);}
	.st2{filter:url(#Adobe_OpacityMaskFilter_00000087371433258098417100000008489203348356549041_);}
	
		.st3{clip-path:url(#SVGID_00000124126801319889484210000010577669705351459717_);mask:url(#SVGID_00000143614872847444365130000005600992213795761045_);fill:url(#SVGID_00000057868128112610673060000005971554803630872497_);}
	
		.st4{clip-path:url(#SVGID_00000124126801319889484210000010577669705351459717_);fill:url(#SVGID_00000179646313473804388640000008222618914667124117_);}
	.st5{clip-path:url(#SVGID_00000124126801319889484210000010577669705351459717_);fill:#8C8C8C;}
	.st6{clip-path:url(#SVGID_00000124126801319889484210000010577669705351459717_);}
	.st7{filter:url(#Adobe_OpacityMaskFilter_00000020371955547526041620000013875742554216397226_);}
	.st8{filter:url(#Adobe_OpacityMaskFilter_00000123401284570017447440000003066977880217572028_);}
	
		.st9{mask:url(#SVGID_00000026884850740595578270000016475520256129910675_);fill:url(#SVGID_00000169515860351548927860000006120451905071989156_);}
	.st10{filter:url(#Adobe_OpacityMaskFilter_00000178913434310291252300000012563472808424129462_);}
	.st11{filter:url(#Adobe_OpacityMaskFilter_00000035526302992208152350000011174721252038104475_);}
	
		.st12{mask:url(#SVGID_00000091732328077024220910000011788450606112727689_);fill:url(#SVGID_00000175300213023601644620000010950100629463029429_);}
	.st13{fill:url(#SVGID_00000127018375038025211100000010942905898987164082_);}
	.st14{filter:url(#Adobe_OpacityMaskFilter_00000172409721111046969720000008527680370309444277_);}
	.st15{filter:url(#Adobe_OpacityMaskFilter_00000055708262444905379440000014940167830296078228_);}
	
		.st16{mask:url(#SVGID_00000017495304605058940250000007977119896039527298_);fill:url(#SVGID_00000095298225473832474650000005836702474077451193_);}
	.st17{filter:url(#Adobe_OpacityMaskFilter_00000093863797293498901390000016889965808469526702_);}
	.st18{filter:url(#Adobe_OpacityMaskFilter_00000145050244234856049020000009573478135937024427_);}
	
		.st19{mask:url(#SVGID_00000142854282213269161020000000096908124573940124_);fill:url(#SVGID_00000170998620824567584420000016176607268395578523_);}
	.st20{fill:url(#SVGID_00000048502879315546087040000014033338137609333433_);}
	.st21{clip-path:url(#SVGID_00000124126801319889484210000010577669705351459717_);fill:#636363;}
	.st22{clip-path:url(#SVGID_00000124126801319889484210000010577669705351459717_);fill:#404040;}
	.st23{clip-path:url(#SVGID_00000124126801319889484210000010577669705351459717_);fill:#1D1F20;}
	.st24{clip-path:url(#SVGID_00000124126801319889484210000010577669705351459717_);fill:#2C2C2E;}
	.st25{filter:url(#Adobe_OpacityMaskFilter_00000174594420680891188800000003309566546010171801_);}
	.st26{filter:url(#Adobe_OpacityMaskFilter_00000151531774299725904660000013730404416849438883_);}
	
		.st27{clip-path:url(#SVGID_00000124126801319889484210000010577669705351459717_);mask:url(#SVGID_00000112622400936645573240000009576243808457204915_);fill:url(#SVGID_00000142134995127317785750000004661029992489516726_);}
	
		.st28{opacity:0.3;clip-path:url(#SVGID_00000124126801319889484210000010577669705351459717_);fill:url(#SVGID_00000116226161830787858450000001198278004937411254_);}
	.st29{fill:#3B3B3B;}
	.st30{fill:#1D1F20;}
	.st31{fill:#999999;}
	.st32{fill:#808080;}
	.st33{fill:#1F1F1F;}
	.st34{fill:#707070;}
</style>
<g>
	<defs>
		<path id="SVGID_1_" d="M108.8,138.2v792.3c0,41.4,24.9,65.2,60,65.2h0.6h28h198.1h28.3c34.1,0,63.2-28.3,63.2-73v-14v-7.6V94.3
			v-6.1v-0.6l0,0c-0.1-31.6-5.7-58.7-28.9-70c-11.4-4.2-18-6.5-33.3-11.2c-8.5-3-18-3.2-27.6-0.9L164.4,60
			C127.5,68.7,108.8,96.2,108.8,138.2z M116.9,138.2c0-18,3.2-31.3,10.1-41.8c9.3-11.8,18.3-17.3,34-20.8l15.4-3.4
			c2.3,0.1,4,1.8,4,4.3l0,11.1c0.2,11.2,9.1,18.3,20.1,16l144.2-31.2c10.9-2.3,19.6-13.7,19.4-25.4l0.4-10.3c0-3.1,2.3-6.2,5.2-6.8
			l24.1-5.3c11.4-2.5,21.7,0.8,28.9,7.9c7.4,7.5,8.9,21.2,8.9,37.4v852.8c0,8.4-1.2,16.2-3.6,23.2c-2.2,6.2-5.2,11.7-9.1,16.1
			c-7.1,8.1-16.7,12.6-27.1,12.6H152.8c-10.9,0-20.8-4.5-26.6-12.1c-6.1-8-9.4-19.1-9.4-31.2V138.2z"/>
	</defs>
	<clipPath id="SVGID_00000026845017643063449940000017674529212551296439_">
		<use xlink:href="#SVGID_1_"  style="overflow:visible;"/>
	</clipPath>
	
		<linearGradient id="SVGID_00000080182857546748744220000005173558580618309559_" gradientUnits="userSpaceOnUse" x1="-2441.8706" y1="995.733" x2="-2441.8706" y2="5.546" gradientTransform="matrix(-1 0 0 1 -2129.677 0)">
		<stop  offset="0" style="stop-color:#49494A"/>
		<stop  offset="2.811860e-02" style="stop-color:#DADADD"/>
		<stop  offset="3.409870e-02" style="stop-color:#DBDBDE"/>
		<stop  offset="4.372714e-02" style="stop-color:#9A9A9C"/>
		<stop  offset="5.317905e-02" style="stop-color:#626263"/>
		<stop  offset="6.121618e-02" style="stop-color:#39393A"/>
		<stop  offset="6.752396e-02" style="stop-color:#202020"/>
		<stop  offset="7.132390e-02" style="stop-color:#171717"/>
		<stop  offset="0.5773" style="stop-color:#BCBCBF"/>
	</linearGradient>
	
		<path style="clip-path:url(#SVGID_00000026845017643063449940000017674529212551296439_);fill:url(#SVGID_00000080182857546748744220000005173558580618309559_);" d="
		M421.8,5.5L194.1,60c-36.8,8.7-56.8,40.4-56.8,78.2v798.4c0,33.1,26.9,59.1,60,59.1h226.4c34.1,0,63.2-28.3,63.2-73V88.2
		c0-31.9-5.6-59.2-28.9-70.6C446,13.2,439.4,10.8,421.8,5.5z"/>
	<defs>
		<filter id="Adobe_OpacityMaskFilter" filterUnits="userSpaceOnUse" x="137.4" y="5.5" width="349.6" height="990.2">
			<feFlood  style="flood-color:white;flood-opacity:1" result="back"/>
			<feBlend  in="SourceGraphic" in2="back" mode="normal"/>
		</filter>
	</defs>
	
		<mask maskUnits="userSpaceOnUse" x="137.4" y="5.5" width="349.6" height="990.2" id="SVGID_00000011024485259907888120000009414886944870572455_">
		<g class="st1">
			<defs>
				
					<filter id="Adobe_OpacityMaskFilter_00000096039584387371837750000016530434449438256812_" filterUnits="userSpaceOnUse" x="137.4" y="5.5" width="349.6" height="990.2">
					<feFlood  style="flood-color:white;flood-opacity:1" result="back"/>
					<feBlend  in="SourceGraphic" in2="back" mode="normal"/>
				</filter>
			</defs>
			
				<mask maskUnits="userSpaceOnUse" x="137.4" y="5.5" width="349.6" height="990.2" id="SVGID_00000011024485259907888120000009414886944870572455_">
				<g style="filter:url(#Adobe_OpacityMaskFilter_00000096039584387371837750000016530434449438256812_);">
				</g>
			</mask>
			
				<linearGradient id="SVGID_00000047750598578620463840000007986791367560138635_" gradientUnits="userSpaceOnUse" x1="-2623.6006" y1="30.6529" x2="-2277.4619" y2="981.6608" gradientTransform="matrix(-1 0 0 1 -2129.677 0)">
				<stop  offset="0" style="stop-color:#FFFFFF"/>
				<stop  offset="1.672804e-03" style="stop-color:#FFFFFF"/>
				<stop  offset="1.171080e-02" style="stop-color:#FFFFFF"/>
				<stop  offset="4.566080e-02" style="stop-color:#FFFFFF"/>
				<stop  offset="7.455602e-02" style="stop-color:#DADADA"/>
				<stop  offset="0.1385" style="stop-color:#7B7B7B"/>
				<stop  offset="0.1852" style="stop-color:#333333"/>
			</linearGradient>
			
				<path style="clip-path:url(#SVGID_00000026845017643063449940000017674529212551296439_);mask:url(#SVGID_00000011024485259907888120000009414886944870572455_);fill:url(#SVGID_00000047750598578620463840000007986791367560138635_);" d="
				M421.8,5.5L194.1,60c-36.8,8.7-56.8,40.4-56.8,78.2v798.4c0,33.1,26.9,59.1,60,59.1h226.4c34.1,0,63.2-28.3,63.2-73V88.2
				c0-31.9-5.6-59.2-28.9-70.6C446,13.2,439.4,10.8,421.8,5.5z"/>
		</g>
	</mask>
	
		<linearGradient id="SVGID_00000166638205311164669770000003247519715037474453_" gradientUnits="userSpaceOnUse" x1="-2623.6006" y1="30.6529" x2="-2277.4619" y2="981.6608" gradientTransform="matrix(-1 0 0 1 -2129.677 0)">
		<stop  offset="0" style="stop-color:#3F3F40"/>
		<stop  offset="1.554954e-04" style="stop-color:#454546"/>
		<stop  offset="1.177071e-03" style="stop-color:#69696B"/>
		<stop  offset="2.289198e-03" style="stop-color:#88888A"/>
		<stop  offset="3.495320e-03" style="stop-color:#A1A1A3"/>
		<stop  offset="4.830631e-03" style="stop-color:#B4B4B7"/>
		<stop  offset="6.364890e-03" style="stop-color:#C2C2C5"/>
		<stop  offset="8.273808e-03" style="stop-color:#CACACD"/>
		<stop  offset="1.171080e-02" style="stop-color:#CCCCCF"/>
		<stop  offset="1.415055e-02" style="stop-color:#BEBEC1"/>
		<stop  offset="2.495218e-02" style="stop-color:#858586"/>
		<stop  offset="3.418221e-02" style="stop-color:#5B5B5C"/>
		<stop  offset="4.138086e-02" style="stop-color:#414142"/>
		<stop  offset="4.566080e-02" style="stop-color:#383838"/>
		<stop  offset="0.1852" style="stop-color:#3C3C3D"/>
	</linearGradient>
	
		<path style="clip-path:url(#SVGID_00000026845017643063449940000017674529212551296439_);fill:url(#SVGID_00000166638205311164669770000003247519715037474453_);" d="
		M421.8,5.5L194.1,60c-36.8,8.7-56.8,40.4-56.8,78.2v798.4c0,33.1,26.9,59.1,60,59.1h226.4c34.1,0,63.2-28.3,63.2-73V88.2
		c0-31.9-5.6-59.2-28.9-70.6C446,13.2,439.4,10.8,421.8,5.5z"/>
	<path style="clip-path:url(#SVGID_00000026845017643063449940000017674529212551296439_);fill:#8C8C8C;" d="M397.2,5.5L164.4,60
		c-36.8,8.7-55.5,36.1-55.5,78.2v792.3c0,41.4,24.9,65.2,60,65.2h226.7c34.1,0,61.7-28.3,61.7-73V70C457.2,16.2,428-1.7,397.2,5.5z"
		/>
	<g style="clip-path:url(#SVGID_00000026845017643063449940000017674529212551296439_);">
		<defs>
			
				<filter id="Adobe_OpacityMaskFilter_00000071555005091832887250000004326527046444976025_" filterUnits="userSpaceOnUse" x="111.2" y="500.3" width="346" height="495.4">
				<feFlood  style="flood-color:white;flood-opacity:1" result="back"/>
				<feBlend  in="SourceGraphic" in2="back" mode="normal"/>
			</filter>
		</defs>
		
			<mask maskUnits="userSpaceOnUse" x="111.2" y="500.3" width="346" height="495.4" id="SVGID_00000124840710455249647880000008140989469887610281_">
			<g style="filter:url(#Adobe_OpacityMaskFilter_00000071555005091832887250000004326527046444976025_);">
				<defs>
					
						<filter id="Adobe_OpacityMaskFilter_00000134224703329844311830000003571770871239395517_" filterUnits="userSpaceOnUse" x="111.2" y="500.3" width="346" height="495.4">
						<feFlood  style="flood-color:white;flood-opacity:1" result="back"/>
						<feBlend  in="SourceGraphic" in2="back" mode="normal"/>
					</filter>
				</defs>
				
					<mask maskUnits="userSpaceOnUse" x="111.2" y="500.3" width="346" height="495.4" id="SVGID_00000124840710455249647880000008140989469887610281_">
					<g style="filter:url(#Adobe_OpacityMaskFilter_00000134224703329844311830000003571770871239395517_);">
					</g>
				</mask>
				
					<linearGradient id="SVGID_00000141450290202497939700000008021491750961474233_" gradientUnits="userSpaceOnUse" x1="-2225.0662" y1="952.456" x2="-2597.1931" y2="508.9723" gradientTransform="matrix(-1 0 0 1 -2129.677 0)">
					<stop  offset="0" style="stop-color:#FFFFFF"/>
					<stop  offset="0.2443" style="stop-color:#FFFFFF"/>
					<stop  offset="0.3534" style="stop-color:#FFFFFF"/>
					<stop  offset="0.3639" style="stop-color:#FFFFFF"/>
					<stop  offset="0.5044" style="stop-color:#B3B3B3"/>
					<stop  offset="0.6372" style="stop-color:#747474"/>
					<stop  offset="0.7568" style="stop-color:#424242"/>
					<stop  offset="0.8609" style="stop-color:#1E1E1E"/>
					<stop  offset="0.9455" style="stop-color:#080808"/>
					<stop  offset="1" style="stop-color:#000000"/>
				</linearGradient>
				
					<path style="mask:url(#SVGID_00000124840710455249647880000008140989469887610281_);fill:url(#SVGID_00000141450290202497939700000008021491750961474233_);" d="
					M457.2,500.3v422.4c0,44.7-27.6,73-61.7,73H169.4c-35.1,0-57.9-23.8-57.9-65.2l-0.3-430.2H457.2z"/>
			</g>
		</mask>
		<g>
			<defs>
				
					<filter id="Adobe_OpacityMaskFilter_00000007386965917513480450000016062102082058286772_" filterUnits="userSpaceOnUse" x="111.2" y="500.3" width="346" height="495.4">
					<feFlood  style="flood-color:white;flood-opacity:1" result="back"/>
					<feBlend  in="SourceGraphic" in2="back" mode="normal"/>
				</filter>
			</defs>
			
				<mask maskUnits="userSpaceOnUse" x="111.2" y="500.3" width="346" height="495.4" id="SVGID_00000156588014500016965400000016529514295217642917_">
				<g style="filter:url(#Adobe_OpacityMaskFilter_00000007386965917513480450000016062102082058286772_);">
					<defs>
						
							<filter id="Adobe_OpacityMaskFilter_00000061447423851268245360000013006937514079555200_" filterUnits="userSpaceOnUse" x="111.2" y="500.3" width="346" height="495.4">
							<feFlood  style="flood-color:white;flood-opacity:1" result="back"/>
							<feBlend  in="SourceGraphic" in2="back" mode="normal"/>
						</filter>
					</defs>
					
						<mask maskUnits="userSpaceOnUse" x="111.2" y="500.3" width="346" height="495.4" id="SVGID_00000156588014500016965400000016529514295217642917_">
						<g style="filter:url(#Adobe_OpacityMaskFilter_00000061447423851268245360000013006937514079555200_);">
						</g>
					</mask>
					
						<linearGradient id="SVGID_00000034805443528561920900000013259176135605773228_" gradientUnits="userSpaceOnUse" x1="-2225.0662" y1="952.456" x2="-2597.1931" y2="508.9723" gradientTransform="matrix(-1 0 0 1 -2129.677 0)">
						<stop  offset="0" style="stop-color:#FFFFFF"/>
						<stop  offset="0.2626" style="stop-color:#FFFFFF"/>
						<stop  offset="0.349" style="stop-color:#FFFFFF"/>
						<stop  offset="0.3639" style="stop-color:#FFFFFF"/>
						<stop  offset="0.5069" style="stop-color:#FCFCFC"/>
						<stop  offset="0.5934" style="stop-color:#F4F4F4"/>
						<stop  offset="0.665" style="stop-color:#E6E6E6"/>
						<stop  offset="0.7284" style="stop-color:#D1D1D1"/>
						<stop  offset="0.7864" style="stop-color:#B7B7B7"/>
						<stop  offset="0.8405" style="stop-color:#969696"/>
						<stop  offset="0.8915" style="stop-color:#707070"/>
						<stop  offset="0.9402" style="stop-color:#434343"/>
						<stop  offset="0.9852" style="stop-color:#121212"/>
						<stop  offset="1" style="stop-color:#000000"/>
					</linearGradient>
					
						<path style="mask:url(#SVGID_00000156588014500016965400000016529514295217642917_);fill:url(#SVGID_00000034805443528561920900000013259176135605773228_);" d="
						M457.2,500.3v422.4c0,44.7-27.6,73-61.7,73H169.4c-35.1,0-57.9-23.8-57.9-65.2l-0.3-430.2H457.2z"/>
				</g>
			</mask>
			
				<linearGradient id="SVGID_00000087381679204951302570000001166881893087508113_" gradientUnits="userSpaceOnUse" x1="-2225.0662" y1="952.456" x2="-2597.1931" y2="508.9723" gradientTransform="matrix(-1 0 0 1 -2129.677 0)">
				<stop  offset="0" style="stop-color:#878787"/>
				<stop  offset="0.2626" style="stop-color:#121212"/>
				<stop  offset="0.3204" style="stop-color:#585858"/>
				<stop  offset="0.349" style="stop-color:#7D7D7D"/>
				<stop  offset="0.3639" style="stop-color:#1A1A1A"/>
				<stop  offset="0.5326" style="stop-color:#1C1C1C"/>
				<stop  offset="0.6347" style="stop-color:#242424"/>
				<stop  offset="0.7191" style="stop-color:#333333"/>
				<stop  offset="0.7939" style="stop-color:#474747"/>
				<stop  offset="0.8623" style="stop-color:#626262"/>
				<stop  offset="0.9261" style="stop-color:#828282"/>
				<stop  offset="0.9851" style="stop-color:#A8A8A8"/>
				<stop  offset="1" style="stop-color:#B3B3B3"/>
			</linearGradient>
			<path style="fill:url(#SVGID_00000087381679204951302570000001166881893087508113_);" d="M457.2,500.3v422.4
				c0,44.7-27.6,73-61.7,73H169.4c-35.1,0-57.9-23.8-57.9-65.2l-0.3-430.2H457.2z"/>
		</g>
	</g>
	<g style="clip-path:url(#SVGID_00000026845017643063449940000017674529212551296439_);">
		<defs>
			
				<filter id="Adobe_OpacityMaskFilter_00000039106937553506084400000001789363823983804849_" filterUnits="userSpaceOnUse" x="110.9" y="4" width="346.3" height="496.3">
				<feFlood  style="flood-color:white;flood-opacity:1" result="back"/>
				<feBlend  in="SourceGraphic" in2="back" mode="normal"/>
			</filter>
		</defs>
		
			<mask maskUnits="userSpaceOnUse" x="110.9" y="4" width="346.3" height="496.3" id="SVGID_00000007394361077594683270000007436222599485727930_">
			<g style="filter:url(#Adobe_OpacityMaskFilter_00000039106937553506084400000001789363823983804849_);">
				<defs>
					
						<filter id="Adobe_OpacityMaskFilter_00000052065869794271206230000016420003053429324672_" filterUnits="userSpaceOnUse" x="110.9" y="4" width="346.3" height="496.3">
						<feFlood  style="flood-color:white;flood-opacity:1" result="back"/>
						<feBlend  in="SourceGraphic" in2="back" mode="normal"/>
					</filter>
				</defs>
				
					<mask maskUnits="userSpaceOnUse" x="110.9" y="4" width="346.3" height="496.3" id="SVGID_00000007394361077594683270000007436222599485727930_">
					<g style="filter:url(#Adobe_OpacityMaskFilter_00000052065869794271206230000016420003053429324672_);">
					</g>
				</mask>
				
					<linearGradient id="SVGID_00000142163598117814843460000001109562698827469998_" gradientUnits="userSpaceOnUse" x1="-2290.5176" y1="58.105" x2="-2556.095" y2="518.0985" gradientTransform="matrix(-1 0 0 1 -2129.677 0)">
					<stop  offset="0" style="stop-color:#000000"/>
					<stop  offset="1.655585e-02" style="stop-color:#3B3B3B"/>
					<stop  offset="3.312179e-02" style="stop-color:#6F6F6F"/>
					<stop  offset="4.991461e-02" style="stop-color:#9B9B9B"/>
					<stop  offset="6.670533e-02" style="stop-color:#BFBFBF"/>
					<stop  offset="8.350721e-02" style="stop-color:#DBDBDB"/>
					<stop  offset="0.1003" style="stop-color:#EFEFEF"/>
					<stop  offset="0.1172" style="stop-color:#FBFBFB"/>
					<stop  offset="0.1342" style="stop-color:#FFFFFF"/>
					<stop  offset="0.2035" style="stop-color:#FFFFFF"/>
					<stop  offset="0.2165" style="stop-color:#FFFFFF"/>
					<stop  offset="0.2722" style="stop-color:#A0A0A0"/>
					<stop  offset="0.3187" style="stop-color:#585858"/>
					<stop  offset="0.3518" style="stop-color:#2B2B2B"/>
					<stop  offset="0.3684" style="stop-color:#1A1A1A"/>
				</linearGradient>
				
					<path style="mask:url(#SVGID_00000007394361077594683270000007436222599485727930_);fill:url(#SVGID_00000142163598117814843460000001109562698827469998_);" d="
					M110.9,500.3V138.2c0-42.1,16.6-69.5,53.4-78.2L397.2,5.5c30.8-7.3,60,10.7,60,64.4v430.3H110.9z"/>
			</g>
		</mask>
		<g>
			<defs>
				
					<filter id="Adobe_OpacityMaskFilter_00000049912372803992091320000016733353572409991858_" filterUnits="userSpaceOnUse" x="110.9" y="4" width="346.3" height="496.3">
					<feFlood  style="flood-color:white;flood-opacity:1" result="back"/>
					<feBlend  in="SourceGraphic" in2="back" mode="normal"/>
				</filter>
			</defs>
			
				<mask maskUnits="userSpaceOnUse" x="110.9" y="4" width="346.3" height="496.3" id="SVGID_00000016072313619265321840000016580142800783616931_">
				<g style="filter:url(#Adobe_OpacityMaskFilter_00000049912372803992091320000016733353572409991858_);">
					<defs>
						
							<filter id="Adobe_OpacityMaskFilter_00000115499726744931751700000007117211805614572221_" filterUnits="userSpaceOnUse" x="110.9" y="4" width="346.3" height="496.3">
							<feFlood  style="flood-color:white;flood-opacity:1" result="back"/>
							<feBlend  in="SourceGraphic" in2="back" mode="normal"/>
						</filter>
					</defs>
					
						<mask maskUnits="userSpaceOnUse" x="110.9" y="4" width="346.3" height="496.3" id="SVGID_00000016072313619265321840000016580142800783616931_">
						<g style="filter:url(#Adobe_OpacityMaskFilter_00000115499726744931751700000007117211805614572221_);">
						</g>
					</mask>
					
						<linearGradient id="SVGID_00000170969256728710759820000010340979705378600885_" gradientUnits="userSpaceOnUse" x1="-2290.5176" y1="58.105" x2="-2556.095" y2="518.0985" gradientTransform="matrix(-1 0 0 1 -2129.677 0)">
						<stop  offset="0.1334" style="stop-color:#FFFFFF"/>
						<stop  offset="0.2035" style="stop-color:#FFFFFF"/>
						<stop  offset="0.2165" style="stop-color:#FFFFFF"/>
						<stop  offset="0.2251" style="stop-color:#FFFFFF"/>
						<stop  offset="0.2631" style="stop-color:#F3F3F3"/>
						<stop  offset="0.331" style="stop-color:#D4D4D4"/>
						<stop  offset="0.4211" style="stop-color:#A2A2A2"/>
						<stop  offset="0.53" style="stop-color:#5D5D5D"/>
						<stop  offset="0.6536" style="stop-color:#050505"/>
						<stop  offset="0.6607" style="stop-color:#000000"/>
					</linearGradient>
					
						<path style="mask:url(#SVGID_00000016072313619265321840000016580142800783616931_);fill:url(#SVGID_00000170969256728710759820000010340979705378600885_);" d="
						M110.9,500.3V138.2c0-42.1,16.6-69.5,53.4-78.2L397.2,5.5c30.8-7.3,60,10.7,60,64.4v430.3H110.9z"/>
				</g>
			</mask>
			
				<linearGradient id="SVGID_00000034083610063779249360000000313128431602691456_" gradientUnits="userSpaceOnUse" x1="-2290.5176" y1="58.105" x2="-2556.095" y2="518.0985" gradientTransform="matrix(-1 0 0 1 -2129.677 0)">
				<stop  offset="0.1334" style="stop-color:#000000"/>
				<stop  offset="0.1409" style="stop-color:#1A1A1A"/>
				<stop  offset="0.1536" style="stop-color:#3E3E3E"/>
				<stop  offset="0.1663" style="stop-color:#5B5B5B"/>
				<stop  offset="0.1789" style="stop-color:#707070"/>
				<stop  offset="0.1913" style="stop-color:#7C7C7C"/>
				<stop  offset="0.2035" style="stop-color:#808080"/>
				<stop  offset="0.2165" style="stop-color:#242424"/>
				<stop  offset="0.2251" style="stop-color:#242424"/>
				<stop  offset="0.285" style="stop-color:#2F2F2F"/>
				<stop  offset="0.3922" style="stop-color:#4E4E4E"/>
				<stop  offset="0.533" style="stop-color:#808080"/>
				<stop  offset="0.6607" style="stop-color:#B3B3B3"/>
			</linearGradient>
			<path style="fill:url(#SVGID_00000034083610063779249360000000313128431602691456_);" d="M110.9,500.3V138.2
				c0-42.1,16.6-69.5,53.4-78.2L397.2,5.5c30.8-7.3,60,10.7,60,64.4v430.3H110.9z"/>
		</g>
	</g>
	<path style="clip-path:url(#SVGID_00000026845017643063449940000017674529212551296439_);fill:#636363;" d="M395.5,990.6
		c15.1,0,28.9-6.4,39-18.1c5.2-6,9.3-13.2,12.1-21.3c3-8.7,4.5-18.2,4.5-28.4V70c0-20.1-4.4-37.4-12.7-47.7
		c-9.1-10.6-20.5-14.9-34-14.6c-3.7,0-7.5,0.5-11.4,1.4L163.3,61.7c-16.2,3.8-31.4,12.8-40.1,26c-10.3,15.6-13.5,31.8-13.5,49.6
		l1.5,794.2c0,29.7,17,59.1,49.7,59.1H395.5z"/>
	<path style="clip-path:url(#SVGID_00000026845017643063449940000017674529212551296439_);fill:#404040;" d="M395.5,988.5
		c14.5,0,27.8-6.2,37.5-17.4c5-5.8,8.9-12.7,11.7-20.6c2.9-8.4,4.4-17.8,4.4-27.7V70c0-19.8-4.4-36.7-12.2-46.4l0,0
		c-8-9.3-18.2-13.8-31.2-13.8c-0.4,0-0.7,0-1.1,0l-0.1,0c-3.5,0-7.1,0.4-10.9,1.3L164.1,61c-8.1,1.9-16.5,5.7-24.2,10.9
		c-7.4,5-13.6,10.9-17.4,16.8c-9.1,13.7-13.1,28.7-13.1,48.4v794.5c0,18.2,8.8,32.5,14,39.4c8.3,11,22.3,17.6,37.5,17.6H395.5z"/>
	<path style="clip-path:url(#SVGID_00000026845017643063449940000017674529212551296439_);" d="M395.5,984.7
		c13.4,0,25.7-5.7,34.6-16.1c4.7-5.4,8.4-11.9,11-19.4c2.8-8,4.2-17,4.2-26.5V70c0-19-4.1-35-11.3-44c-7.2-8.4-16.5-12.5-28.3-12.5
		c-0.3,0-0.7,0-1,0l-0.1,0c-3.2,0-6.6,0.4-10.1,1.2L164.9,64.6c-15.2,3.6-31.7,14.5-39.3,26c-8.7,13.1-12.5,27.4-12.5,46.4v794.5
		c0,17.1,8.3,30.6,13.2,37.2c7.6,10.1,20.5,16.1,34.6,16.1H395.5z"/>
	<path style="clip-path:url(#SVGID_00000026845017643063449940000017674529212551296439_);" d="M395.5,983
		c12.8,0,24.7-5.5,33.3-15.5c4.6-5.3,8.1-11.6,10.6-18.8c2.7-7.9,4.1-16.6,4.1-25.9V70c0-18.5-4-34.2-10.9-42.9
		c-6.9-8-15.7-11.9-27-11.9c-0.3,0-0.7,0-1,0l-0.1,0c-3.1,0-6.3,0.4-9.6,1.2l-232,51.1c-17.5,4-28.2,10.5-38.8,24.1
		c-8.4,12.8-11.6,28-11.6,46.6v793.2c0,13.8,3.9,26.7,11.1,36.1c7.3,9.6,19.6,15.4,33.1,15.4H395.5z"/>
	
		<rect x="451.1" y="901.2" style="clip-path:url(#SVGID_00000026845017643063449940000017674529212551296439_);fill:#1D1F20;" width="35.9" height="7.6"/>
	<polygon style="clip-path:url(#SVGID_00000026845017643063449940000017674529212551296439_);fill:#1D1F20;" points="451.1,84.5 
		457.2,84.5 487,94.3 487,87.7 457.2,77.8 451.1,77.8 	"/>
	
		<rect x="451.1" y="77.8" style="clip-path:url(#SVGID_00000026845017643063449940000017674529212551296439_);fill:#1D1F20;" width="6.1" height="6.7"/>
	<path style="clip-path:url(#SVGID_00000026845017643063449940000017674529212551296439_);fill:#2C2C2E;" d="M243.1,125.3l59.1-12.3
		c2.1-0.4,3.6-2.8,3.1-5.2l0-0.1c-0.5-2.4-2.3-4.1-4.4-3.6l-58.8,12.3c-2.1,0.4-3.6,2.8-3.1,5.2l0,0.1
		C239.5,124.1,241,125.8,243.1,125.3z"/>
	<defs>
		
			<filter id="Adobe_OpacityMaskFilter_00000050628296920207396250000015538665359945060031_" filterUnits="userSpaceOnUse" x="224.3" y="131.7" width="206.5" height="726.6">
			<feColorMatrix  type="matrix" values="1 0 0 0 0  0 1 0 0 0  0 0 1 0 0  0 0 0 1 0"/>
		</filter>
	</defs>
	
		<mask maskUnits="userSpaceOnUse" x="224.3" y="131.7" width="206.5" height="726.6" id="SVGID_00000182524803221430916530000000268753533764620187_">
		<g style="filter:url(#Adobe_OpacityMaskFilter_00000050628296920207396250000015538665359945060031_);">
			<defs>
				
					<filter id="Adobe_OpacityMaskFilter_00000169540312202430881180000010172824081448983457_" filterUnits="userSpaceOnUse" x="224.3" y="131.7" width="206.5" height="726.6">
					<feFlood  style="flood-color:white;flood-opacity:1" result="back"/>
					<feBlend  in="SourceGraphic" in2="back" mode="normal"/>
				</filter>
			</defs>
			
				<mask maskUnits="userSpaceOnUse" x="224.3" y="131.7" width="206.5" height="726.6" id="SVGID_00000182524803221430916530000000268753533764620187_">
				<g style="filter:url(#Adobe_OpacityMaskFilter_00000169540312202430881180000010172824081448983457_);">
				</g>
			</mask>
			
				<linearGradient id="SVGID_00000012432716389562194120000005275812930170886038_" gradientUnits="userSpaceOnUse" x1="7729.2573" y1="858.2841" x2="7729.2573" y2="131.694" gradientTransform="matrix(1 0 0 1 -7401.7476 0)">
				<stop  offset="2.509410e-03" style="stop-color:#000000"/>
				<stop  offset="1" style="stop-color:#1A1A1A"/>
			</linearGradient>
			
				<path style="clip-path:url(#SVGID_00000026845017643063449940000017674529212551296439_);mask:url(#SVGID_00000182524803221430916530000000268753533764620187_);fill:url(#SVGID_00000012432716389562194120000005275812930170886038_);" d="
				M425.7,857.7c2.8-0.1,5.1-2.4,5.1-5.2V135.8c0-2.6-2.3-4.5-4.8-4l-201.6,39.5l185.6,687L425.7,857.7z"/>
		</g>
	</mask>
	
		<linearGradient id="SVGID_00000078031122489731910990000007670109359588902827_" gradientUnits="userSpaceOnUse" x1="7729.2573" y1="858.2841" x2="7729.2573" y2="131.694" gradientTransform="matrix(1 0 0 1 -7401.7476 0)">
		<stop  offset="2.509410e-03" style="stop-color:#FFFFFF"/>
		<stop  offset="1" style="stop-color:#FFFFFF"/>
	</linearGradient>
	
		<path style="opacity:0.3;clip-path:url(#SVGID_00000026845017643063449940000017674529212551296439_);fill:url(#SVGID_00000078031122489731910990000007670109359588902827_);" d="
		M425.7,857.7c2.8-0.1,5.1-2.4,5.1-5.2V135.8c0-2.6-2.3-4.5-4.8-4l-201.6,39.5l185.6,687L425.7,857.7z"/>
	<g style="clip-path:url(#SVGID_00000026845017643063449940000017674529212551296439_);">
		<path class="st29" d="M468,430.6c0.2,0,2.9,0,3.1,0c2.8,0,2.3-2.7,2.3-5.4v-73.9c0-3,0.7-5.4-2.1-6.3c-0.3-0.1-0.9-0.5-1.2-0.5
			c-0.4,0-2.8,0-3.1,0c-3,0-5.4,2.4-5.4,5.4v73.9c0,3,1.9,5.6,4.7,6.5C466.9,430.5,467.4,430.6,468,430.6z"/>
		<path class="st30" d="M470.4,429.6L470.4,429.6c3,1,6.2-1.3,6.2-4.5v-73.9c0-2.7-1.7-5-4.2-5.8l0,0c-3-1-6.2,1.3-6.2,4.5v73.9
			C466.2,426.4,467.9,428.8,470.4,429.6z"/>
		<path class="st31" d="M471.1,430.6c3,0,5.4-2.4,5.4-5.4v-73.9c0-3-1.9-5.6-4.7-6.5c-0.6-0.2-1.1-0.3-1.7-0.3c-3,0-5.4,2.4-5.4,5.4
			v73.9c0,3,1.9,5.6,4.7,6.5C470,430.5,470.5,430.6,471.1,430.6z"/>
		<path class="st32" d="M470.4,429.6L470.4,429.6c3,1,6.2-1.3,6.2-4.5v-73.9c0-2.7-1.7-5-4.2-5.8l0,0c-3-1-6.2,1.3-6.2,4.5v73.9
			C466.2,426.4,467.9,428.8,470.4,429.6z"/>
	</g>
	<g style="clip-path:url(#SVGID_00000026845017643063449940000017674529212551296439_);">
		<path class="st29" d="M468,324c0.2,0,2.9,0,3.1,0c2.8,0,2.3-2.7,2.3-5.4v-73.9c0-3,0.7-5.4-2.1-6.3c-0.3-0.1-0.9-0.5-1.2-0.5
			c-0.4,0-2.8,0-3.1,0c-3,0-5.4,2.4-5.4,5.4v73.9c0,3,1.9,5.6,4.7,6.5C466.9,323.9,467.4,324,468,324z"/>
		<path class="st30" d="M470.4,323L470.4,323c3,1,6.2-1.3,6.2-4.5v-73.9c0-2.7-1.7-5-4.2-5.8l0,0c-3-1-6.2,1.3-6.2,4.5v73.9
			C466.2,319.8,467.9,322.2,470.4,323z"/>
		<path class="st31" d="M471.1,324c3,0,5.4-2.4,5.4-5.4v-73.9c0-3-1.9-5.6-4.7-6.5c-0.6-0.2-1.1-0.3-1.7-0.3c-3,0-5.4,2.4-5.4,5.4
			v73.9c0,3,1.9,5.6,4.7,6.5C470,323.9,470.5,324,471.1,324z"/>
		<path class="st32" d="M470.4,323L470.4,323c3,1,6.2-1.3,6.2-4.5v-73.9c0-2.7-1.7-5-4.2-5.8l0,0c-3-1-6.2,1.3-6.2,4.5v73.9
			C466.2,319.8,467.9,322.2,470.4,323z"/>
	</g>
	<path style="clip-path:url(#SVGID_00000026845017643063449940000017674529212551296439_);fill:#1D1F20;" d="M469.6,202.4
		L469.6,202.4c1.3,0.4,2.6-0.5,2.6-1.9v-36.1c0-1.1-0.7-2.1-1.8-2.5l0,0c-1.3-0.4-2.6,0.5-2.6,1.9v36.1
		C467.8,201,468.5,202,469.6,202.4z"/>
	<g style="clip-path:url(#SVGID_00000026845017643063449940000017674529212551296439_);">
		<path class="st33" d="M470.5,202.8c0.1,0,1.3,0,1.4,0c1.3,0,1.1-1.1,1.1-2.3v-36.1c0-1.3,0.3-2.3-1-2.7c-0.1,0-0.4-0.2-0.5-0.2
			c-0.2,0-1.3,0-1.4,0c-1.4,0-2.5,1-2.5,2.3v36.1c0,1.3,0.9,2.4,2.2,2.8C470,202.7,470.3,202.8,470.5,202.8z"/>
		<path class="st32" d="M472.5,202.8c1,0,1.9-1,1.9-2.3v-36.1c0-1.3-0.7-2.4-1.6-2.8c-0.2-0.1-0.4-0.1-0.6-0.1c-1,0-1.9,1-1.9,2.3
			v36.1c0,1.3,0.7,2.4,1.6,2.8C472.1,202.7,472.3,202.8,472.5,202.8z"/>
		<path class="st34" d="M472.3,202.4L472.3,202.4c1.1,0.4,2.1-0.5,2.1-1.9v-36.1c0-1.1-0.6-2.1-1.5-2.5l0,0
			c-1.1-0.4-2.1,0.5-2.1,1.9v36.1C470.8,201,471.4,202,472.3,202.4z"/>
	</g>
</g>
</svg>
