<?xml version="1.0" encoding="utf-8"?>
<!-- Generator: Adobe Illustrator 25.4.1, SVG Export Plug-In . SVG Version: 6.00 Build 0)  -->
<svg version="1.1" id="Layer_1" xmlns="http://www.w3.org/2000/svg" xmlns:xlink="http://www.w3.org/1999/xlink" x="0px" y="0px"
	 viewBox="0 0 414 826" style="enable-background:new 0 0 414 826;" xml:space="preserve">
<style type="text/css">
	
		.st0{clip-path:url(#SVGID_00000000191331073022553100000006494091392170783929_);fill:url(#SVGID_00000026859029699217290920000012078801541234296212_);}
	
		.st1{clip-path:url(#SVGID_00000000191331073022553100000006494091392170783929_);fill:url(#SVGID_00000054268094564848879060000005370174770690845321_);}
	
		.st2{clip-path:url(#SVGID_00000000191331073022553100000006494091392170783929_);fill:url(#SVGID_00000096039349009077306360000006675194009671802045_);}
	.st3{clip-path:url(#SVGID_00000000191331073022553100000006494091392170783929_);fill:#494A4A;}
	.st4{clip-path:url(#SVGID_00000000191331073022553100000006494091392170783929_);}
	.st5{filter:url(#Adobe_OpacityMaskFilter);}
	.st6{filter:url(#Adobe_OpacityMaskFilter_00000169534775440118026850000015932535533247737500_);}
	
		.st7{mask:url(#SVGID_00000018925078573638208570000009043060021942246541_);fill:url(#SVGID_00000080201979451296771500000013703893013067175356_);}
	.st8{fill:url(#SVGID_00000155110185799855059470000016184957705819398833_);}
	.st9{filter:url(#Adobe_OpacityMaskFilter_00000016762633665358487820000000707868801668213180_);}
	.st10{filter:url(#Adobe_OpacityMaskFilter_00000022560433740998999810000000010998122226401697_);}
	
		.st11{mask:url(#SVGID_00000137817259137528901040000007437818172684987293_);fill:url(#SVGID_00000034053226733915545490000014068459318938752665_);}
	.st12{fill:url(#SVGID_00000165944024614815685220000016087430900522946432_);}
	.st13{filter:url(#Adobe_OpacityMaskFilter_00000010296934785636353750000011625591264890132625_);}
	.st14{filter:url(#Adobe_OpacityMaskFilter_00000130633509173176431460000005866372965712769713_);}
	
		.st15{mask:url(#SVGID_00000047759420892411858980000013244394869097631679_);fill:url(#SVGID_00000054978111249227597600000002069884014689321871_);}
	.st16{fill:url(#SVGID_00000096774097451496111100000011467808549827763898_);}
	.st17{filter:url(#Adobe_OpacityMaskFilter_00000139988789561210570610000001421799892525700520_);}
	.st18{filter:url(#Adobe_OpacityMaskFilter_00000170260172233676397230000008125111598464348854_);}
	
		.st19{mask:url(#SVGID_00000126297818822852288270000011726834371028879027_);fill:url(#SVGID_00000167398550606991886670000011547538361773942203_);}
	.st20{fill:url(#SVGID_00000132805005734882585080000013639602665007451023_);}
	.st21{clip-path:url(#SVGID_00000000191331073022553100000006494091392170783929_);fill:#87868F;}
	.st22{clip-path:url(#SVGID_00000000191331073022553100000006494091392170783929_);fill:#464648;}
	.st23{fill:#1D1D1B;}
	.st24{clip-path:url(#SVGID_00000000191331073022553100000006494091392170783929_);fill:#656666;}
	
		.st25{clip-path:url(#SVGID_00000000191331073022553100000006494091392170783929_);fill:url(#SVGID_00000091726802659981036080000011548371417195240125_);}
	.st26{clip-path:url(#SVGID_00000000191331073022553100000006494091392170783929_);fill:#2C2C2E;}
	.st27{clip-path:url(#SVGID_00000000191331073022553100000006494091392170783929_);fill:#00001A;}
	.st28{filter:url(#Adobe_OpacityMaskFilter_00000179628508535303402720000016593362236198048689_);}
	.st29{filter:url(#Adobe_OpacityMaskFilter_00000183967590736618236070000010815007078352377483_);}
	
		.st30{clip-path:url(#SVGID_00000000191331073022553100000006494091392170783929_);mask:url(#SVGID_00000115504272806018474730000011976510834286524803_);fill:url(#SVGID_00000014631063031472497890000007252254580062805950_);}
	
		.st31{opacity:0.3;clip-path:url(#SVGID_00000000191331073022553100000006494091392170783929_);fill:url(#SVGID_00000172402669678240207670000000094776592639235254_);}
</style>
<g>
	<defs>
		<path id="SVGID_1_" d="M413.3,58.2c-0.2-3-0.5-6-1.1-8.9c-0.2-1-0.4-1.9-0.7-2.9c-3.9-15.1-13.6-27.9-26.6-35.8
			c-4.1-2.5-8.5-4.5-13.1-5.9c-1.9-0.6-3.7-1.1-5.7-1.5c-3.9-0.8-7.8-1.2-11.9-1.2H198.3H64.8c-4.1,0-8.1,0.4-11.9,1.2
			c-1.9,0.4-3.8,0.9-5.7,1.5c-4.6,1.4-9,3.4-13.1,5.9c-13,7.9-22.7,20.7-26.6,35.8c-0.2,0.9-0.5,1.9-0.7,2.9c-0.6,2.9-1,5.9-1.1,8.9
			c-0.1,1-0.1,2-0.1,3v68.9H4.4c-1.1,0-2,0.8-2,1.7v26.8c0,0.9,0.9,1.7,2,1.7h1.2v28.2H4.4c-1.1,0-2,1.5-2,3.4v54.6
			c0,1.9,0.9,3.4,2,3.4h1.2v17.8H4.4c-1.1,0-2,1.5-2,3.4v54.6c0,1.9,0.9,3.4,2,3.4h1.2v83.2v350.3c0,32.7,26.5,59.2,59.2,59.2h133.6
			h155.8c32.7,0,59.2-26.5,59.2-59.2V412.5V61.2C413.3,60.2,413.3,59.2,413.3,58.2z M327.1,19.1h26.8c23.5,0,42.6,19.1,42.6,42.6
			v700.6c0,23.5-19.1,42.6-42.6,42.6H65c-23.5,0-42.6-19.1-42.6-42.6V61.7c0-23.5,19.1-42.6,42.6-42.6h26.8"/>
	</defs>
	<clipPath id="SVGID_00000109740014309560763040000011894187891441565599_">
		<use xlink:href="#SVGID_1_"  style="overflow:visible;"/>
	</clipPath>
	
		<linearGradient id="SVGID_00000007419946667215457330000011133273854386652590_" gradientUnits="userSpaceOnUse" x1="5.0756" y1="249.9685" x2="5.0756" y2="188.496">
		<stop  offset="0" style="stop-color:#3C3D3D"/>
		<stop  offset="2.946097e-03" style="stop-color:#565757"/>
		<stop  offset="9.032813e-03" style="stop-color:#868787"/>
		<stop  offset="1.481345e-02" style="stop-color:#ACADAD"/>
		<stop  offset="2.013140e-02" style="stop-color:#C8C8C8"/>
		<stop  offset="2.482148e-02" style="stop-color:#D8D8D8"/>
		<stop  offset="2.838790e-02" style="stop-color:#DEDEDE"/>
		<stop  offset="3.342189e-02" style="stop-color:#CECECE"/>
		<stop  offset="4.680239e-02" style="stop-color:#A8A8A8"/>
		<stop  offset="6.122222e-02" style="stop-color:#878887"/>
		<stop  offset="7.665837e-02" style="stop-color:#6C6E6D"/>
		<stop  offset="9.347789e-02" style="stop-color:#585958"/>
		<stop  offset="0.1124" style="stop-color:#494B4A"/>
		<stop  offset="0.1351" style="stop-color:#414342"/>
		<stop  offset="0.1718" style="stop-color:#3E403F"/>
		<stop  offset="0.8403" style="stop-color:#404241"/>
		<stop  offset="0.8766" style="stop-color:#434544"/>
		<stop  offset="0.8986" style="stop-color:#4B4D4C"/>
		<stop  offset="0.9169" style="stop-color:#595B5A"/>
		<stop  offset="0.933" style="stop-color:#6E6F6E"/>
		<stop  offset="0.9478" style="stop-color:#888989"/>
		<stop  offset="0.9615" style="stop-color:#A8A9A9"/>
		<stop  offset="0.9743" style="stop-color:#CECECE"/>
		<stop  offset="0.9752" style="stop-color:#D1D1D1"/>
		<stop  offset="1" style="stop-color:#6E706F"/>
	</linearGradient>
	
		<path style="clip-path:url(#SVGID_00000109740014309560763040000011894187891441565599_);fill:url(#SVGID_00000007419946667215457330000011133273854386652590_);" d="
		M7.8,250H4.4c-1.1,0-2-1.5-2-3.4v-54.6c0-1.9,0.9-3.4,2-3.4h3.4V250z"/>
	
		<linearGradient id="SVGID_00000181088178961253417350000004993861889772558744_" gradientUnits="userSpaceOnUse" x1="5.0756" y1="160.281" x2="5.0756" y2="130.124">
		<stop  offset="0" style="stop-color:#3C3D3D"/>
		<stop  offset="2.946097e-03" style="stop-color:#565757"/>
		<stop  offset="9.032813e-03" style="stop-color:#868787"/>
		<stop  offset="1.481345e-02" style="stop-color:#ACADAD"/>
		<stop  offset="2.013140e-02" style="stop-color:#C8C8C8"/>
		<stop  offset="2.482148e-02" style="stop-color:#D8D8D8"/>
		<stop  offset="2.838790e-02" style="stop-color:#DEDEDE"/>
		<stop  offset="3.135524e-02" style="stop-color:#D4D4D4"/>
		<stop  offset="4.494093e-02" style="stop-color:#AEAEAE"/>
		<stop  offset="5.957996e-02" style="stop-color:#8E8E8E"/>
		<stop  offset="7.524917e-02" style="stop-color:#737373"/>
		<stop  offset="9.231552e-02" style="stop-color:#5E5E5E"/>
		<stop  offset="0.1115" style="stop-color:#505050"/>
		<stop  offset="0.1346" style="stop-color:#474747"/>
		<stop  offset="0.1718" style="stop-color:#454545"/>
		<stop  offset="0.6368" style="stop-color:#424242"/>
		<stop  offset="0.8403" style="stop-color:#3D3D3D"/>
		<stop  offset="0.8763" style="stop-color:#404040"/>
		<stop  offset="0.8982" style="stop-color:#484848"/>
		<stop  offset="0.9164" style="stop-color:#575757"/>
		<stop  offset="0.9324" style="stop-color:#6B6B6B"/>
		<stop  offset="0.9471" style="stop-color:#858585"/>
		<stop  offset="0.9609" style="stop-color:#A6A6A6"/>
		<stop  offset="0.9736" style="stop-color:#CCCCCC"/>
		<stop  offset="0.9752" style="stop-color:#D1D1D1"/>
		<stop  offset="1" style="stop-color:#6E706F"/>
	</linearGradient>
	
		<path style="clip-path:url(#SVGID_00000109740014309560763040000011894187891441565599_);fill:url(#SVGID_00000181088178961253417350000004993861889772558744_);" d="
		M7.8,160.3H4.4c-1.1,0-2-0.8-2-1.7v-26.8c0-0.9,0.9-1.7,2-1.7h3.4V160.3z"/>
	
		<linearGradient id="SVGID_00000046340126765329725090000018176366358131163039_" gradientUnits="userSpaceOnUse" x1="5.0756" y1="329.29" x2="5.0756" y2="267.8175">
		<stop  offset="0" style="stop-color:#3C3D3D"/>
		<stop  offset="2.946097e-03" style="stop-color:#565757"/>
		<stop  offset="9.032813e-03" style="stop-color:#868787"/>
		<stop  offset="1.481345e-02" style="stop-color:#ACADAD"/>
		<stop  offset="2.013140e-02" style="stop-color:#C8C8C8"/>
		<stop  offset="2.482148e-02" style="stop-color:#D8D8D8"/>
		<stop  offset="2.838790e-02" style="stop-color:#DEDEDE"/>
		<stop  offset="3.342189e-02" style="stop-color:#CECECE"/>
		<stop  offset="4.680239e-02" style="stop-color:#A8A8A8"/>
		<stop  offset="6.122222e-02" style="stop-color:#878887"/>
		<stop  offset="7.665837e-02" style="stop-color:#6C6E6D"/>
		<stop  offset="9.347789e-02" style="stop-color:#585958"/>
		<stop  offset="0.1124" style="stop-color:#494B4A"/>
		<stop  offset="0.1351" style="stop-color:#414342"/>
		<stop  offset="0.1718" style="stop-color:#3E403F"/>
		<stop  offset="0.8403" style="stop-color:#404241"/>
		<stop  offset="0.8766" style="stop-color:#434544"/>
		<stop  offset="0.8986" style="stop-color:#4B4D4C"/>
		<stop  offset="0.9169" style="stop-color:#595B5A"/>
		<stop  offset="0.933" style="stop-color:#6E6F6E"/>
		<stop  offset="0.9478" style="stop-color:#888989"/>
		<stop  offset="0.9615" style="stop-color:#A8A9A9"/>
		<stop  offset="0.9743" style="stop-color:#CECECE"/>
		<stop  offset="0.9752" style="stop-color:#D1D1D1"/>
		<stop  offset="1" style="stop-color:#6E706F"/>
	</linearGradient>
	
		<path style="clip-path:url(#SVGID_00000109740014309560763040000011894187891441565599_);fill:url(#SVGID_00000046340126765329725090000018176366358131163039_);" d="
		M7.8,329.3H4.4c-1.1,0-2-1.5-2-3.4v-54.6c0-1.9,0.9-3.4,2-3.4h3.4V329.3z"/>
	<path style="clip-path:url(#SVGID_00000109740014309560763040000011894187891441565599_);fill:#494A4A;" d="M354.1,2H64.8
		C32.1,2,5.6,28.5,5.6,61.2v701.6c0,32.7,26.5,59.2,59.2,59.2h289.3c32.7,0,59.2-26.5,59.2-59.2V61.2C413.3,28.5,386.8,2,354.1,2z"
		/>
	<g style="clip-path:url(#SVGID_00000109740014309560763040000011894187891441565599_);">
		<defs>
			<filter id="Adobe_OpacityMaskFilter" filterUnits="userSpaceOnUse" x="5.6" y="2" width="192.8" height="410.5">
				<feFlood  style="flood-color:white;flood-opacity:1" result="back"/>
				<feBlend  in="SourceGraphic" in2="back" mode="normal"/>
			</filter>
		</defs>
		
			<mask maskUnits="userSpaceOnUse" x="5.6" y="2" width="192.8" height="410.5" id="SVGID_00000062165866087358750770000006797047960684994745_">
			<g class="st5">
				<defs>
					
						<filter id="Adobe_OpacityMaskFilter_00000096057889705348842260000003612282722530042535_" filterUnits="userSpaceOnUse" x="5.6" y="2" width="192.8" height="410.5">
						<feFlood  style="flood-color:white;flood-opacity:1" result="back"/>
						<feBlend  in="SourceGraphic" in2="back" mode="normal"/>
					</filter>
				</defs>
				
					<mask maskUnits="userSpaceOnUse" x="5.6" y="2" width="192.8" height="410.5" id="SVGID_00000062165866087358750770000006797047960684994745_">
					<g style="filter:url(#Adobe_OpacityMaskFilter_00000096057889705348842260000003612282722530042535_);">
					</g>
				</mask>
				
					<linearGradient id="SVGID_00000143616393620306254970000012284480095855509412_" gradientUnits="userSpaceOnUse" x1="-47.8906" y1="348.8065" x2="267.3759" y2="84.2665">
					<stop  offset="0" style="stop-color:#000000"/>
					<stop  offset="0.5433" style="stop-color:#FFFFFF"/>
					<stop  offset="0.652" style="stop-color:#FFFFFF"/>
					<stop  offset="0.6616" style="stop-color:#FFFFFF"/>
					<stop  offset="0.6785" style="stop-color:#FBFBFB"/>
					<stop  offset="0.6961" style="stop-color:#EEEEEE"/>
					<stop  offset="0.7141" style="stop-color:#D9D9D9"/>
					<stop  offset="0.7324" style="stop-color:#BCBCBC"/>
					<stop  offset="0.7509" style="stop-color:#969696"/>
					<stop  offset="0.7695" style="stop-color:#676767"/>
					<stop  offset="0.788" style="stop-color:#323232"/>
					<stop  offset="0.803" style="stop-color:#000000"/>
				</linearGradient>
				
					<path style="mask:url(#SVGID_00000062165866087358750770000006797047960684994745_);fill:url(#SVGID_00000143616393620306254970000012284480095855509412_);" d="
					M198.3,412.5V2H64.8C32.1,2,5.6,28.5,5.6,61.2v351.3H198.3z"/>
			</g>
		</mask>
		
			<linearGradient id="SVGID_00000074433186008055960960000003105052989896245910_" gradientUnits="userSpaceOnUse" x1="-47.8906" y1="348.8065" x2="267.3759" y2="84.2665">
			<stop  offset="0" style="stop-color:#000000"/>
			<stop  offset="0.5433" style="stop-color:#000000"/>
			<stop  offset="0.558" style="stop-color:#191919"/>
			<stop  offset="0.5877" style="stop-color:#454545"/>
			<stop  offset="0.6144" style="stop-color:#656565"/>
			<stop  offset="0.6367" style="stop-color:#787878"/>
			<stop  offset="0.652" style="stop-color:#808080"/>
			<stop  offset="0.6616" style="stop-color:#000000"/>
			<stop  offset="0.803" style="stop-color:#000000"/>
		</linearGradient>
		<path style="fill:url(#SVGID_00000074433186008055960960000003105052989896245910_);" d="M198.3,412.5V2H64.8
			C32.1,2,5.6,28.5,5.6,61.2v351.3H198.3z"/>
	</g>
	<g style="clip-path:url(#SVGID_00000109740014309560763040000011894187891441565599_);">
		<defs>
			
				<filter id="Adobe_OpacityMaskFilter_00000044141012242848965370000017167079079970270868_" filterUnits="userSpaceOnUse" x="5.6" y="412.5" width="192.8" height="409.5">
				<feFlood  style="flood-color:white;flood-opacity:1" result="back"/>
				<feBlend  in="SourceGraphic" in2="back" mode="normal"/>
			</filter>
		</defs>
		
			<mask maskUnits="userSpaceOnUse" x="5.6" y="412.5" width="192.8" height="409.5" id="SVGID_00000176724996199808024310000003458219224833729465_">
			<g style="filter:url(#Adobe_OpacityMaskFilter_00000044141012242848965370000017167079079970270868_);">
				<defs>
					
						<filter id="Adobe_OpacityMaskFilter_00000057868814136841067940000000862422927380349859_" filterUnits="userSpaceOnUse" x="5.6" y="412.5" width="192.8" height="409.5">
						<feFlood  style="flood-color:white;flood-opacity:1" result="back"/>
						<feBlend  in="SourceGraphic" in2="back" mode="normal"/>
					</filter>
				</defs>
				
					<mask maskUnits="userSpaceOnUse" x="5.6" y="412.5" width="192.8" height="409.5" id="SVGID_00000176724996199808024310000003458219224833729465_">
					<g style="filter:url(#Adobe_OpacityMaskFilter_00000057868814136841067940000000862422927380349859_);">
					</g>
				</mask>
				
					<linearGradient id="SVGID_00000030485847918134703600000002164638361350622131_" gradientUnits="userSpaceOnUse" x1="-47.6297" y1="475.9423" x2="267.115" y2="740.0445">
					<stop  offset="0" style="stop-color:#000000"/>
					<stop  offset="0.5433" style="stop-color:#FFFFFF"/>
					<stop  offset="0.6545" style="stop-color:#FFFFFF"/>
					<stop  offset="0.6654" style="stop-color:#FFFFFF"/>
					<stop  offset="0.694" style="stop-color:#F7F7F7"/>
					<stop  offset="0.7388" style="stop-color:#E0E0E0"/>
					<stop  offset="0.7943" style="stop-color:#BCBCBC"/>
					<stop  offset="0.8582" style="stop-color:#898989"/>
					<stop  offset="0.9291" style="stop-color:#484848"/>
					<stop  offset="1" style="stop-color:#000000"/>
				</linearGradient>
				
					<path style="mask:url(#SVGID_00000176724996199808024310000003458219224833729465_);fill:url(#SVGID_00000030485847918134703600000002164638361350622131_);" d="
					M5.6,412.5v350.3c0,32.7,26.5,59.2,59.2,59.2h133.6V412.5H5.6z"/>
			</g>
		</mask>
		
			<linearGradient id="SVGID_00000183946458153057974920000003485851664278113171_" gradientUnits="userSpaceOnUse" x1="-47.6297" y1="475.9423" x2="267.115" y2="740.0445">
			<stop  offset="0" style="stop-color:#000000"/>
			<stop  offset="0.5433" style="stop-color:#000000"/>
			<stop  offset="0.5554" style="stop-color:#131313"/>
			<stop  offset="0.5868" style="stop-color:#3F3F3F"/>
			<stop  offset="0.6149" style="stop-color:#5F5F5F"/>
			<stop  offset="0.6384" style="stop-color:#737373"/>
			<stop  offset="0.6545" style="stop-color:#7A7A7A"/>
			<stop  offset="0.6654" style="stop-color:#000000"/>
			<stop  offset="1" style="stop-color:#000000"/>
		</linearGradient>
		<path style="fill:url(#SVGID_00000183946458153057974920000003485851664278113171_);" d="M5.6,412.5v350.3
			c0,32.7,26.5,59.2,59.2,59.2h133.6V412.5H5.6z"/>
	</g>
	<g style="clip-path:url(#SVGID_00000109740014309560763040000011894187891441565599_);">
		<defs>
			
				<filter id="Adobe_OpacityMaskFilter_00000116228210844314956960000005842328827526720651_" filterUnits="userSpaceOnUse" x="198.3" y="2" width="215" height="410.5">
				<feFlood  style="flood-color:white;flood-opacity:1" result="back"/>
				<feBlend  in="SourceGraphic" in2="back" mode="normal"/>
			</filter>
		</defs>
		
			<mask maskUnits="userSpaceOnUse" x="198.3" y="2" width="215" height="410.5" id="SVGID_00000008838290219301466140000004640712517353056944_">
			<g style="filter:url(#Adobe_OpacityMaskFilter_00000116228210844314956960000005842328827526720651_);">
				<defs>
					
						<filter id="Adobe_OpacityMaskFilter_00000163779232756731897910000004079435742320771005_" filterUnits="userSpaceOnUse" x="198.3" y="2" width="195.7" height="410.5">
						<feFlood  style="flood-color:white;flood-opacity:1" result="back"/>
						<feBlend  in="SourceGraphic" in2="back" mode="normal"/>
					</filter>
				</defs>
				
					<mask maskUnits="userSpaceOnUse" x="198.3" y="2" width="195.7" height="410.5" id="SVGID_00000008838290219301466140000004640712517353056944_">
					<g style="filter:url(#Adobe_OpacityMaskFilter_00000163779232756731897910000004079435742320771005_);">
					</g>
				</mask>
				
					<linearGradient id="SVGID_00000103267262031497967030000007591301710124747393_" gradientUnits="userSpaceOnUse" x1="158.0509" y1="30.215" x2="415.3317" y2="397.65">
					<stop  offset="0" style="stop-color:#000000"/>
					<stop  offset="2.055063e-02" style="stop-color:#050505"/>
					<stop  offset="4.601462e-02" style="stop-color:#151515"/>
					<stop  offset="7.408317e-02" style="stop-color:#2E2E2E"/>
					<stop  offset="0.104" style="stop-color:#515151"/>
					<stop  offset="0.1355" style="stop-color:#7E7E7E"/>
					<stop  offset="0.1682" style="stop-color:#B6B6B6"/>
					<stop  offset="0.2013" style="stop-color:#F6F6F6"/>
					<stop  offset="0.2058" style="stop-color:#FFFFFF"/>
					<stop  offset="0.2869" style="stop-color:#FFFFFF"/>
					<stop  offset="0.2953" style="stop-color:#FFFFFF"/>
					<stop  offset="0.3562" style="stop-color:#F7F7F7"/>
					<stop  offset="0.4485" style="stop-color:#E3E3E3"/>
					<stop  offset="0.5606" style="stop-color:#C0C0C0"/>
					<stop  offset="0.6884" style="stop-color:#919191"/>
					<stop  offset="0.8294" style="stop-color:#545454"/>
					<stop  offset="0.9793" style="stop-color:#0B0B0B"/>
					<stop  offset="1" style="stop-color:#000000"/>
				</linearGradient>
				
					<path style="mask:url(#SVGID_00000008838290219301466140000004640712517353056944_);fill:url(#SVGID_00000103267262031497967030000007591301710124747393_);" d="
					M334.9,2H198.3v410.5h195.7V61.2C394.1,28.5,367.6,2,334.9,2z"/>
			</g>
		</mask>
		
			<linearGradient id="SVGID_00000034059553449613379270000006414671579512204430_" gradientUnits="userSpaceOnUse" x1="164.5081" y1="25.6936" x2="428.1207" y2="402.1714">
			<stop  offset="0" style="stop-color:#000000"/>
			<stop  offset="0.2058" style="stop-color:#000000"/>
			<stop  offset="0.2064" style="stop-color:#020202"/>
			<stop  offset="0.2249" style="stop-color:#2E2E2E"/>
			<stop  offset="0.2428" style="stop-color:#525252"/>
			<stop  offset="0.2595" style="stop-color:#6B6B6B"/>
			<stop  offset="0.2746" style="stop-color:#7A7A7A"/>
			<stop  offset="0.2869" style="stop-color:#808080"/>
			<stop  offset="0.2953" style="stop-color:#000000"/>
			<stop  offset="1" style="stop-color:#000000"/>
		</linearGradient>
		<path style="fill:url(#SVGID_00000034059553449613379270000006414671579512204430_);" d="M354.1,2H198.3v410.5h215V61.2
			C413.3,28.5,386.8,2,354.1,2z"/>
	</g>
	<g style="clip-path:url(#SVGID_00000109740014309560763040000011894187891441565599_);">
		<defs>
			
				<filter id="Adobe_OpacityMaskFilter_00000042727736405999351160000014196404247649782941_" filterUnits="userSpaceOnUse" x="198.3" y="412.5" width="215" height="409.5">
				<feFlood  style="flood-color:white;flood-opacity:1" result="back"/>
				<feBlend  in="SourceGraphic" in2="back" mode="normal"/>
			</filter>
		</defs>
		
			<mask maskUnits="userSpaceOnUse" x="198.3" y="412.5" width="215" height="409.5" id="SVGID_00000103256649734854048460000018033760134252474536_">
			<g style="filter:url(#Adobe_OpacityMaskFilter_00000042727736405999351160000014196404247649782941_);">
				<defs>
					
						<filter id="Adobe_OpacityMaskFilter_00000128455921849673612630000006311945370144975770_" filterUnits="userSpaceOnUse" x="198.3" y="412.5" width="195.7" height="409.5">
						<feFlood  style="flood-color:white;flood-opacity:1" result="back"/>
						<feBlend  in="SourceGraphic" in2="back" mode="normal"/>
					</filter>
				</defs>
				
					<mask maskUnits="userSpaceOnUse" x="198.3" y="412.5" width="195.7" height="409.5" id="SVGID_00000103256649734854048460000018033760134252474536_">
					<g style="filter:url(#Adobe_OpacityMaskFilter_00000128455921849673612630000006311945370144975770_);">
					</g>
				</mask>
				
					<linearGradient id="SVGID_00000072981412433993769350000013206992760324494012_" gradientUnits="userSpaceOnUse" x1="127.682" y1="721.0811" x2="451.4101" y2="494.4042">
					<stop  offset="0" style="stop-color:#000000"/>
					<stop  offset="0.2785" style="stop-color:#FFFFFF"/>
					<stop  offset="0.3897" style="stop-color:#FFFFFF"/>
					<stop  offset="0.4007" style="stop-color:#FFFFFF"/>
					<stop  offset="0.4525" style="stop-color:#F7F7F7"/>
					<stop  offset="0.5309" style="stop-color:#E3E3E3"/>
					<stop  offset="0.6264" style="stop-color:#C0C0C0"/>
					<stop  offset="0.735" style="stop-color:#919191"/>
					<stop  offset="0.8549" style="stop-color:#545454"/>
					<stop  offset="0.9824" style="stop-color:#0B0B0B"/>
					<stop  offset="1" style="stop-color:#000000"/>
				</linearGradient>
				
					<path style="mask:url(#SVGID_00000103256649734854048460000018033760134252474536_);fill:url(#SVGID_00000072981412433993769350000013206992760324494012_);" d="
					M198.3,412.5V822h136.5c32.7,0,59.2-26.5,59.2-59.2V412.5H198.3z"/>
			</g>
		</mask>
		
			<linearGradient id="SVGID_00000163782228895797265760000004707181559998559165_" gradientUnits="userSpaceOnUse" x1="130.8479" y1="725.6025" x2="467.4904" y2="489.8829">
			<stop  offset="0" style="stop-color:#000000"/>
			<stop  offset="0.2785" style="stop-color:#000000"/>
			<stop  offset="0.2948" style="stop-color:#161616"/>
			<stop  offset="0.339" style="stop-color:#4E4E4E"/>
			<stop  offset="0.372" style="stop-color:#707070"/>
			<stop  offset="0.3897" style="stop-color:#7D7D7D"/>
			<stop  offset="0.4007" style="stop-color:#000000"/>
			<stop  offset="1" style="stop-color:#000000"/>
		</linearGradient>
		<path style="fill:url(#SVGID_00000163782228895797265760000004707181559998559165_);" d="M198.3,412.5V822h155.8
			c32.7,0,59.2-26.5,59.2-59.2V412.5H198.3z"/>
	</g>
	<path style="clip-path:url(#SVGID_00000109740014309560763040000011894187891441565599_);fill:#87868F;" d="M65,817.5
		c-30.4,0-55.2-24.7-55.2-55.2V61.7C9.8,31.3,34.6,6.5,65,6.5h289c30.4,0,55.2,24.7,55.2,55.2v700.6c0,30.4-24.7,55.2-55.2,55.2H65z
		"/>
	<path style="clip-path:url(#SVGID_00000109740014309560763040000011894187891441565599_);fill:#464648;" d="M65,816.2
		c-29.7,0-53.8-24.2-53.8-53.8V61.7C11.1,32,35.3,7.8,65,7.8h289c29.7,0,53.8,24.2,53.8,53.8v700.6c0,29.7-24.2,53.8-53.8,53.8H65z"
		/>
	<g style="clip-path:url(#SVGID_00000109740014309560763040000011894187891441565599_);">
		<path class="st23" d="M65,813.5c-28.2,0-51.2-23-51.2-51.2V61.7c0-28.2,23-51.2,51.2-51.2h289c28.2,0,51.2,23,51.2,51.2v700.6
			c0,28.2-23,51.2-51.2,51.2H65z"/>
	</g>
	
		<rect x="409.1" y="745.2" style="clip-path:url(#SVGID_00000109740014309560763040000011894187891441565599_);fill:#656666;" width="4" height="6.3"/>
	
		<rect x="5.8" y="745.2" style="clip-path:url(#SVGID_00000109740014309560763040000011894187891441565599_);fill:#656666;" width="4" height="6.3"/>
	
		<rect x="407.8" y="72.4" style="clip-path:url(#SVGID_00000109740014309560763040000011894187891441565599_);fill:#656666;" width="5.3" height="6.3"/>
	
		<rect x="5.8" y="72.4" style="clip-path:url(#SVGID_00000109740014309560763040000011894187891441565599_);fill:#656666;" width="4" height="6.3"/>
	
		<linearGradient id="SVGID_00000090263240723017333890000016888966384441301929_" gradientUnits="userSpaceOnUse" x1="209.33" y1="706.0596" x2="209.33" y2="116.3538">
		<stop  offset="0" style="stop-color:#000000"/>
		<stop  offset="0.591" style="stop-color:#181818"/>
		<stop  offset="1" style="stop-color:#2B2B2B"/>
	</linearGradient>
	
		<path style="clip-path:url(#SVGID_00000109740014309560763040000011894187891441565599_);fill:url(#SVGID_00000090263240723017333890000016888966384441301929_);" d="
		M34.3,706.1c-1.3,0-2.3-1-2.3-2.3V118.7c0-1.3,1-2.3,2.3-2.3h350.1c1.3,0,2.3,1,2.3,2.3v585.1c0,1.3-1,2.3-2.3,2.3H34.3z"/>
	<path style="clip-path:url(#SVGID_00000109740014309560763040000011894187891441565599_);fill:#2C2C2E;" d="M229,77h-61.4
		c-2.2,0-3.9-1.8-3.9-3.9v-0.1c0-2.2,1.8-3.9,3.9-3.9H229c2.2,0,3.9,1.8,3.9,3.9V73C233,75.2,231.2,77,229,77z"/>
	<path style="clip-path:url(#SVGID_00000109740014309560763040000011894187891441565599_);fill:#00001A;" d="M200.9,51.7
		c0,1.4-1.1,2.5-2.5,2.5c-1.4,0-2.5-1.1-2.5-2.5c0-1.4,1.1-2.5,2.5-2.5C199.7,49.2,200.9,50.3,200.9,51.7z"/>
	<defs>
		
			<filter id="Adobe_OpacityMaskFilter_00000112611403427179299070000008786580873684185490_" filterUnits="userSpaceOnUse" x="156.4" y="116.4" width="230.2" height="589.7">
			<feColorMatrix  type="matrix" values="1 0 0 0 0  0 1 0 0 0  0 0 1 0 0  0 0 0 1 0"/>
		</filter>
	</defs>
	
		<mask maskUnits="userSpaceOnUse" x="156.4" y="116.4" width="230.2" height="589.7" id="SVGID_00000044139030797638281530000003969365217688410782_">
		<g style="filter:url(#Adobe_OpacityMaskFilter_00000112611403427179299070000008786580873684185490_);">
			<defs>
				
					<filter id="Adobe_OpacityMaskFilter_00000019673702946263259740000004439845977424191917_" filterUnits="userSpaceOnUse" x="156.4" y="116.4" width="211" height="589.7">
					<feFlood  style="flood-color:white;flood-opacity:1" result="back"/>
					<feBlend  in="SourceGraphic" in2="back" mode="normal"/>
				</filter>
			</defs>
			
				<mask maskUnits="userSpaceOnUse" x="156.4" y="116.4" width="211" height="589.7" id="SVGID_00000044139030797638281530000003969365217688410782_">
				<g style="filter:url(#Adobe_OpacityMaskFilter_00000019673702946263259740000004439845977424191917_);">
				</g>
			</mask>
			
				<linearGradient id="SVGID_00000059305709182881365410000017777143558340136583_" gradientUnits="userSpaceOnUse" x1="261.9293" y1="706.06" x2="261.9293" y2="116.3538">
				<stop  offset="2.509410e-03" style="stop-color:#000000"/>
				<stop  offset="1" style="stop-color:#1A1A1A"/>
			</linearGradient>
			
				<path style="clip-path:url(#SVGID_00000109740014309560763040000011894187891441565599_);mask:url(#SVGID_00000044139030797638281530000003969365217688410782_);fill:url(#SVGID_00000059305709182881365410000017777143558340136583_);" d="
				M365.1,706.1c1.3,0,2.3-1,2.3-2.3V118.7c0-1.3-1-2.3-2.3-2.3H156.4l181.5,589.7H365.1z"/>
		</g>
	</mask>
	
		<linearGradient id="SVGID_00000031166189485453926540000016622696839680792504_" gradientUnits="userSpaceOnUse" x1="271.5524" y1="706.06" x2="271.5524" y2="116.3538">
		<stop  offset="2.509410e-03" style="stop-color:#FFFFFF"/>
		<stop  offset="1" style="stop-color:#FFFFFF"/>
	</linearGradient>
	
		<path style="opacity:0.3;clip-path:url(#SVGID_00000109740014309560763040000011894187891441565599_);fill:url(#SVGID_00000031166189485453926540000016622696839680792504_);" d="
		M384.4,706.1c1.3,0,2.3-1,2.3-2.3V118.7c0-1.3-1-2.3-2.3-2.3H156.4l200.7,589.7H384.4z"/>
</g>
</svg>
